<svg width="20" height="20" viewBox="0 0 20 20" fill="none" xmlns="http://www.w3.org/2000/svg">
<path id="Vector" d="M11.5385 18.4615C11.5385 19.3125 10.851 20 10 20C9.14904 20 8.46154 19.3125 8.46154 18.4615V11.5385H1.53846C0.6875 11.5385 0 10.851 0 10C0 9.14904 0.6875 8.46154 1.53846 8.46154H8.46154V1.53846C8.46154 0.6875 9.14904 0 10 0C10.851 0 11.5385 0.6875 11.5385 1.53846V8.46154H18.4615C19.3125 8.46154 20 9.14904 20 10C20 10.851 19.3125 11.5385 18.4615 11.5385H11.5385V18.4615Z" fill="white"/>
</svg>
